PathFileType	4	(X/Y/Z)	C:\Users\°ÂÌØÂü\Desktop\20201223\Trimmed_bx_n_5_901.trc
DataRate	CameraRate	NumFrames	NumMarkers	Units	OrigDataRate	OrigDataStartFrame	OrigNumFrames
50.00	50.00	       6	43	mm	50.00	1	       402
Frame#	Time	Top.Head			R.Acromium			L.Acromium			Sternum			R.ASIS			L.ASIS			V.Sacral			R.Thigh.Upper			R.Thigh.Front			R.Thigh.Rear			R.Knee.Lat			R.Knee.Med			R.Shank.Upper			R.Shank.Front			R.Shank.Rear			R.Ankle.Lat			R.Midfoot.Lat			R.Toe.Lat			R.Toe.Tip			R.Toe.Med			R.Ankle.Med			R.Midfoot.Sup			R.Heel			L.Thigh.Upper			L.Thigh.Front			L.Thigh.Rear			L.Knee.Lat			L.Knee.Med			L.Shank.Upper			L.Shank.Front			L.Shank.Rear			L.Ankle.Lat			L.Midfoot.Lat			L.Toe.Lat			L.Toe.Tip			L.Toe.Med			L.Ankle.Med			L.Midfoot.Sup			L.Heel			origin1 front left			origin2 front right			origin 3 back right			origin 4 back leftt			
		X1	Y1	Z1	X2	Y2	Z2	X3	Y3	Z3	X4	Y4	Z4	X5	Y5	Z5	X6	Y6	Z6	X7	Y7	Z7	X8	Y8	Z8	X9	Y9	Z9	X10	Y10	Z10	X11	Y11	Z11	X12	Y12	Z12	X13	Y13	Z13	X14	Y14	Z14	X15	Y15	Z15	X16	Y16	Z16	X17	Y17	Z17	X18	Y18	Z18	X19	Y19	Z19	X20	Y20	Z20	X21	Y21	Z21	X22	Y22	Z22	X23	Y23	Z23	X24	Y24	Z24	X25	Y25	Z25	X26	Y26	Z26	X27	Y27	Z27	X28	Y28	Z28	X29	Y29	Z29	X30	Y30	Z30	X31	Y31	Z31	X32	Y32	Z32	X33	Y33	Z33	X34	Y34	Z34	X35	Y35	Z35	X36	Y36	Z36	X37	Y37	Z37	X38	Y38	Z38	X39	Y39	Z39	X40	Y40	Z40	X41	Y41	Z41	X42	Y42	Z42	X43	Y43	Z43	

1	0.000	-405.89267	272.01572	1798.97058	-555.70844	80.97174	1536.33960	-562.21967	432.53638	1527.07129	-500.68405	253.01332	1328.97388	-567.48743	129.11699	1031.38220	-535.14203	354.09918	1034.43823	-751.25049	260.48239	1067.97095	-643.40271	82.36694	833.14197	-552.00208	143.83487	814.14624	-639.65106	94.26356	723.01288	-670.07831	118.18134	601.92664	-654.86938	227.75471	562.38220	-695.77570	115.77835	538.84711	-622.15582	173.30879	526.93646	-701.50037	106.96733	487.03348	-687.52277	140.33911	212.25079	-606.42212	88.05305	165.47693	-557.95459	72.20598	162.93094	-483.41226	117.83790	157.84537	-533.33838	167.77242	163.14177	-649.23157	221.77403	218.59827	-601.42255	201.28438	170.44757	-729.55878	201.61658	170.42148	-627.91974	438.95981	855.50354	-545.26691	387.20963	816.00830	-648.68866	426.34418	740.45587	-663.35443	405.82126	606.12738	-650.68683	294.55722	568.78632	-677.52490	408.22546	559.40985	-619.92816	351.33853	536.72485	-729.10449	412.37228	494.04861	-678.12738	404.26865	214.61531	-581.65851	449.96902	163.74072	-544.82471	461.49420	158.52771	-481.24594	410.50208	165.91833	-524.74268	368.85663	176.65755	-647.72302	311.74106	209.42375	-596.99011	330.40198	170.20477	-735.43848	334.98383	161.15933	-443.72665	448.47116	146.54678	-450.51871	74.80093	143.46542	-806.15430	81.93114	141.04308	-799.69617	456.27695	144.59221	
2	0.020	-396.95007	272.15259	1795.21790	-550.64679	81.10135	1535.24976	-557.17108	432.42847	1525.75549	-498.99808	252.81412	1326.77881	-569.56177	129.07629	1031.03552	-537.02942	354.08295	1034.02905	-753.02472	260.61499	1068.80371	-645.56775	82.31902	833.20544	-554.07922	143.93767	814.15283	-641.39911	94.26386	722.95825	-671.49359	118.13876	601.99500	-656.11975	227.93752	562.38062	-696.90765	115.85121	538.65308	-623.29694	173.42368	527.08502	-702.46082	106.98639	486.94571	-687.56073	140.24490	212.30548	-606.37903	88.01929	165.49544	-557.93451	72.15263	162.96762	-483.41678	117.83437	157.84619	-533.34601	167.80057	163.15883	-649.12372	221.92764	219.04077	-601.43048	201.27174	170.50143	-729.66644	201.50113	170.49295	-629.79779	439.16483	855.67157	-547.18781	387.16443	815.87701	-650.21844	426.58841	740.45239	-664.63666	405.99573	605.96967	-652.28436	294.82114	568.78912	-678.80084	408.40820	559.28271	-621.13837	351.46802	536.77399	-730.13104	412.61548	493.85059	-678.23395	404.38611	214.53923	-581.67029	450.00876	163.64467	-544.79163	461.48462	158.56871	-481.26410	410.39508	165.92781	-524.73810	368.90076	176.67596	-647.94379	311.71683	209.55296	-597.06549	330.52875	170.28947	-735.51099	335.07446	161.08075	-443.71072	448.45520	146.53072	-450.52722	74.81298	143.45618	-806.16650	81.93695	141.08920	-799.72382	456.31842	144.59703	
3	0.040	-388.00766	272.26050	1791.39990	-545.54114	81.22253	1534.10034	-552.05847	432.33405	1524.39197	-497.30719	252.60709	1324.54504	-571.64001	129.03473	1030.68201	-538.92157	354.06516	1033.60901	-754.80182	260.74277	1069.62585	-647.74866	82.28420	833.26147	-556.17023	144.03633	814.16748	-643.16125	94.26470	722.90503	-672.91125	118.10617	602.05432	-657.36676	228.09865	562.37305	-698.04553	115.91816	538.47717	-624.44031	173.52582	527.22552	-703.42615	107.00137	486.86252	-687.59985	140.15506	212.34674	-606.34015	87.98658	165.50967	-557.91565	72.10278	162.99910	-483.42297	117.83574	157.84601	-533.35144	167.82805	163.17610	-649.02905	222.05838	219.45044	-601.44043	201.25578	170.55771	-729.76721	201.39040	170.56142	-631.69989	439.35324	855.81732	-549.12061	387.11075	815.76410	-651.76581	426.82126	740.43970	-665.92444	406.16187	605.82117	-653.88342	295.07742	568.79285	-680.06659	408.58829	559.16254	-622.35498	351.58847	536.81836	-731.15851	412.85510	493.64813	-678.33282	404.49249	214.46866	-581.68005	450.04526	163.55470	-544.75977	461.47696	158.60742	-481.27713	410.29214	165.93878	-524.73737	368.94119	176.68916	-648.15167	311.69415	209.66302	-597.13495	330.64719	170.36984	-735.57996	335.15833	161.00877	-443.69672	448.43790	146.51453	-450.53568	74.82299	143.44775	-806.17865	81.94439	141.12973	-799.75079	456.35770	144.60449	
4	0.060	-379.06555	272.31363	1787.45740	-540.34973	81.32543	1532.83643	-546.82794	432.25980	1522.93481	-495.60657	252.38420	1322.23621	-573.72888	128.99226	1030.31580	-540.82690	354.04367	1033.16821	-756.58563	260.86050	1070.42896	-649.95868	82.27256	833.30371	-558.28711	144.12694	814.19641	-644.95026	94.26600	722.85431	-674.33472	118.09137	602.09668	-658.61078	228.22115	562.35510	-699.19507	115.97435	538.33203	-625.58923	173.60510	527.35211	-704.40155	107.00877	486.78659	-687.64087	140.07224	212.36475	-606.30859	87.95567	165.51616	-557.89893	72.05931	163.02118	-483.43216	117.84593	157.84392	-533.35345	167.85371	163.19374	-648.95917	222.14876	219.80177	-601.45465	201.23436	170.61807	-729.85553	201.28778	170.62416	-633.64740	439.51221	855.92395	-551.07660	387.04297	815.68433	-653.34637	427.03458	740.41101	-667.22363	406.31393	605.68896	-655.48596	295.32007	568.79712	-681.31616	408.76312	559.05432	-623.58398	351.69269	536.85455	-732.18866	413.08847	493.43765	-678.41779	404.57950	214.40758	-581.68622	450.07623	163.47606	-544.73010	461.47278	158.64159	-481.28131	410.19653	165.95226	-524.74347	368.97485	176.69327	-648.33643	311.67590	209.73952	-597.19397	330.75049	170.44197	-735.64148	335.23117	160.94943	-443.68649	448.41864	146.49792	-450.54385	74.82954	143.44069	-806.19061	81.95462	141.16017	-799.77539	456.39319	144.61665	
5	0.080	-370.12357	272.29190	1783.34192	-535.03540	81.39803	1531.41077	-541.44305	432.20074	1521.34216	-493.89191	252.13736	1319.82104	-575.83966	128.95038	1029.93188	-542.75995	354.01498	1032.69922	-758.38220	260.96265	1071.20837	-652.20752	82.28898	833.32825	-560.43927	144.20593	814.24298	-646.77679	94.26659	722.80627	-675.76929	118.09815	602.11609	-659.85834	228.29596	562.32452	-700.36218	116.01663	538.22119	-626.74878	173.65585	527.46313	-705.39246	107.00607	486.71747	-687.68414	139.99626	212.35588	-606.28619	87.92671	165.51283	-557.88483	72.02393	163.03151	-483.44498	117.86720	157.83919	-533.35205	167.87575	163.21164	-648.92297	222.19026	220.08159	-601.47571	201.20715	170.68301	-729.92767	201.19446	170.67880	-635.65649	439.63538	855.98352	-553.06555	386.96051	815.64642	-654.97308	427.22571	740.36377	-668.54095	406.45020	605.57642	-657.09454	295.54544	568.79926	-682.55042	408.93054	558.95947	-624.83026	351.77649	536.88141	-733.22485	413.31439	493.21701	-678.48523	404.64368	214.35739	-581.68817	450.10089	163.41245	-544.70337	461.47269	158.66907	-481.27545	410.11026	165.96863	-524.75830	368.99991	176.68665	-648.49213	311.66696	209.77643	-597.24023	330.83450	170.50281	-735.69092	335.29309	160.90767	-443.68161	448.39798	146.48036	-450.55136	74.83221	143.43506	-806.20203	81.96792	141.17793	-799.79437	456.42435	144.63461	
6	0.100	-361.18137	272.18228	1779.01807	-529.56677	81.42627	1529.78564	-535.88861	432.13815	1519.57593	-492.15997	251.85939	1317.27478	-577.98889	128.91261	1029.52673	-544.74261	353.97394	1032.19653	-760.20038	261.04324	1071.96338	-654.50085	82.33219	833.33344	-562.63293	144.27066	814.30701	-648.64935	94.26401	722.76001	-677.22198	118.12529	602.10938	-661.12280	228.32310	562.28174	-701.55255	116.04355	538.13837	-627.92572	173.67725	527.56104	-706.40485	106.99178	486.65140	-687.73004	139.92352	212.32361	-606.27289	87.89913	165.49904	-557.87360	71.99689	163.02980	-483.46143	117.89988	157.83144	-533.34888	167.89180	163.22939	-648.92615	222.18420	220.29044	-601.50610	201.17548	170.75171	-729.98273	201.10927	170.72345	-637.73822	439.72385	855.99835	-555.09601	386.86783	815.65216	-656.65540	427.39758	740.29993	-669.88403	406.57312	605.48273	-658.71283	295.75217	568.79462	-683.77820	409.08914	558.87598	-626.09766	351.83926	536.90033	-734.27246	413.53326	492.98563	-678.53510	404.68741	214.31656	-581.68622	450.11996	163.36569	-544.67969	461.47668	158.68819	-481.26105	410.03354	165.98767	-524.78217	369.01581	176.67014	-648.61829	311.67459	209.77757	-597.27423	330.89838	170.55067	-735.72308	335.34869	160.88686	-443.68329	448.37772	146.46112	-450.55762	74.83166	143.43048	-806.21265	81.98349	141.18266	-799.80292	456.45197	144.65845	
